<?xml version="1.0" standalone="no"?>
<!DOCTYPE svg PUBLIC "-//W3C//DTD SVG 20010904//EN"
 "http://www.w3.org/TR/2001/REC-SVG-20010904/DTD/svg10.dtd">
<svg version="1.0" xmlns="http://www.w3.org/2000/svg"
 width="1707.000000pt" height="1707.000000pt" viewBox="0 0 1707.000000 1707.000000"
 preserveAspectRatio="xMidYMid meet">
<metadata>
Created by potrace 1.11, written by Peter Selinger 2001-2013
</metadata>
<g transform="translate(0.000000,1707.000000) scale(0.100000,-0.100000)"
fill="#000000" stroke="none">
<path d="M14465 14859 c-203 -35 -715 -200 -1090 -352 -267 -108 -634 -281
-860 -404 -60 -33 -141 -77 -180 -98 -145 -80 -477 -282 -660 -403 -471 -310
-890 -633 -1257 -968 l-66 -60 -114 29 c-62 15 -124 31 -138 33 -14 3 -41 9
-60 14 -19 5 -47 11 -62 14 -15 2 -31 7 -35 9 -5 3 -30 8 -57 11 -27 4 -52 9
-55 10 -3 2 -28 7 -56 10 -27 4 -59 9 -70 12 -53 12 -322 49 -430 59 -38 4
-83 9 -100 11 -27 3 -89 8 -230 19 -66 5 -600 5 -740 0 -260 -8 -449 -27 -725
-70 -14 -2 -56 -9 -95 -15 -121 -19 -415 -80 -538 -111 -99 -26 -121 -28 -135
-17 -9 7 -66 55 -127 108 -60 52 -139 120 -175 150 -36 30 -67 57 -70 61 -3 3
-14 12 -26 20 -11 8 -41 31 -65 51 -326 273 -960 711 -1349 930 -25 14 -79 45
-120 68 -205 118 -827 430 -856 430 -2 0 -32 13 -66 29 -196 89 -707 279 -824
306 -10 2 -66 18 -124 35 -284 84 -361 95 -451 61 -57 -22 -55 -20 -148 -156
-120 -178 -275 -454 -355 -635 -16 -36 -41 -92 -56 -125 -15 -33 -38 -89 -50
-125 -13 -36 -26 -69 -30 -75 -9 -13 -101 -285 -134 -395 -29 -99 -101 -389
-110 -443 -3 -20 -10 -56 -15 -79 -5 -24 -12 -61 -15 -83 -4 -22 -11 -65 -16
-95 -11 -60 -15 -95 -25 -185 -3 -33 -8 -73 -10 -90 -26 -202 -26 -828 0 -995
2 -14 6 -54 10 -90 3 -36 8 -76 10 -90 6 -30 11 -68 21 -135 3 -27 8 -59 10
-70 2 -11 7 -33 10 -50 3 -16 12 -64 21 -105 8 -41 17 -86 19 -99 11 -55 77
-305 110 -411 178 -575 422 -1081 796 -1649 50 -75 87 -140 84 -150 -2 -9 -7
-32 -10 -51 -3 -19 -8 -46 -11 -60 -6 -30 -42 -248 -50 -306 -21 -153 -25
-244 -25 -579 0 -439 5 -499 66 -860 41 -238 122 -524 244 -859 66 -181 247
-550 370 -756 89 -148 231 -360 317 -470 87 -113 204 -256 263 -322 102 -114
378 -392 453 -455 34 -29 77 -66 95 -83 62 -56 226 -186 352 -278 69 -50 130
-95 135 -99 17 -13 177 -118 225 -147 25 -15 68 -41 95 -58 170 -104 405 -230
595 -318 119 -55 356 -156 400 -170 14 -5 57 -20 95 -34 130 -49 299 -104 445
-145 80 -23 159 -45 175 -50 25 -8 43 -12 105 -26 72 -16 210 -47 225 -51 11
-3 34 -7 50 -10 17 -2 50 -9 75 -14 25 -6 90 -17 145 -25 55 -9 114 -18 130
-21 17 -3 44 -7 60 -10 17 -2 46 -6 65 -9 19 -3 58 -8 85 -11 28 -2 66 -7 85
-9 133 -15 307 -20 665 -20 399 0 573 7 785 30 72 8 349 44 375 49 51 9 102
18 125 22 105 18 234 47 445 100 138 35 161 41 360 105 479 152 942 362 1355
612 63 39 124 75 135 81 19 11 182 121 275 187 37 26 154 114 195 146 169 135
267 218 398 343 143 136 172 165 261 260 382 408 714 898 931 1375 20 44 43
94 50 110 65 143 181 470 221 625 62 238 113 491 130 642 3 29 8 64 10 78 26
150 26 937 0 1077 -2 10 -7 43 -10 74 -6 52 -27 176 -57 337 -11 59 -10 66 9
90 92 120 431 693 501 847 5 11 37 79 70 150 34 72 67 141 73 155 5 14 14 33
20 43 5 10 34 82 64 160 30 78 59 153 65 167 57 133 161 510 215 775 24 118
55 326 69 470 3 33 8 74 10 90 22 189 22 692 0 895 -2 19 -7 62 -10 95 -3 33
-8 78 -11 100 -3 22 -7 56 -10 75 -75 560 -267 1158 -544 1695 -132 257 -270
477 -335 534 -57 50 -136 73 -210 60z"/>
<path d="M16750 7634 c-113 -30 -212 -56 -220 -58 -8 -2 -58 -15 -110 -29 -52
-14 -214 -57 -360 -96 -146 -39 -281 -75 -300 -81 -44 -13 -440 -119 -466
-125 -16 -3 -56 -15 -139 -39 -5 -2 -23 -6 -40 -10 -16 -4 -88 -24 -160 -43
-137 -37 -152 -41 -172 -42 -7 -1 -13 -10 -13 -22 0 -23 57 -224 71 -250 10
-19 -8 -23 374 76 143 37 268 68 278 70 10 2 52 14 95 26 42 12 93 25 112 29
38 9 218 55 340 88 41 11 143 39 225 60 83 22 195 52 250 67 55 15 107 28 116
30 9 2 49 13 90 25 41 12 79 23 84 25 17 3 96 25 171 46 50 15 71 26 71 37 1
18 -55 250 -63 264 -8 12 -12 11 -234 -48z"/>
<path d="M86 7642 c-8 -13 -66 -243 -66 -262 0 -13 22 -23 103 -45 56 -15 134
-37 172 -47 69 -20 182 -50 380 -103 55 -14 141 -38 190 -52 81 -22 216 -58
256 -67 8 -2 73 -20 145 -39 71 -20 190 -52 264 -71 74 -19 162 -42 195 -51
229 -62 488 -125 495 -120 8 5 32 77 69 205 4 14 7 36 7 49 -1 30 87 3 -746
226 -217 58 -444 119 -505 136 -60 17 -118 33 -127 34 -16 4 -462 123 -563
151 -5 2 -46 13 -90 24 -171 46 -170 45 -179 32z"/>
<path d="M14750 6309 c0 -109 3 -148 13 -151 10 -3 2270 -2 2288 1 3 0 5 67 5
149 l0 147 -1153 0 -1153 0 0 -146z"/>
<path d="M18 6415 c0 0 -2 -66 -3 -146 l-2 -147 1154 0 1153 0 0 147 0 146
-1150 0 c-632 0 -1151 0 -1152 0z"/>
<path d="M14644 5862 c-21 -51 -68 -241 -61 -248 3 -4 95 -30 204 -60 109 -30
214 -58 233 -64 36 -11 363 -98 390 -105 8 -1 58 -14 110 -28 545 -145 670
-178 700 -187 81 -23 558 -148 591 -155 9 -2 33 -8 53 -13 20 -6 38 -7 41 -2
6 9 65 254 65 269 0 12 -131 51 -450 135 -52 14 -205 55 -340 91 -296 80 -396
106 -520 139 -52 13 -160 42 -240 64 -114 31 -522 139 -728 192 -31 8 -33 7
-48 -28z"/>
<path d="M2020 5759 c-201 -54 -417 -113 -480 -129 -571 -151 -1429 -386
-1437 -394 -6 -5 52 -259 62 -277 5 -6 91 15 510 126 77 20 181 47 230 60 50
13 218 58 375 100 157 42 292 78 300 80 21 5 318 83 360 95 66 19 552 150 557
150 2 0 2 4 -1 8 -3 5 -7 19 -10 33 -33 153 -66 249 -84 248 -10 0 -181 -45
-382 -100z"/>
</g>
</svg>
